<svg xmlns="http://www.w3.org/2000/svg" viewBox="0 0 64 64">
<defs><linearGradient id="g" x1="0" y1="0" x2="1" y2="1"><stop offset="0" stop-color="#4ade80"/><stop offset="1" stop-color="#15803d"/></linearGradient></defs>
<g transform="rotate(-35 32 32)">
<rect x="28.5" y="42" width="7" height="18" rx="3" fill="#e2e8f0"/>
<rect x="28.5" y="46" width="7" height="2" fill="#94a3b8"/><rect x="28.5" y="51" width="7" height="2" fill="#94a3b8"/><rect x="28.5" y="56" width="7" height="2" fill="#94a3b8"/>
<path d="M26 38 L32 45 L38 38 Z" fill="#e2e8f0"/>
<path d="M32 4 C46 4 52 14 52 23 C52 33 44 40 32 40 C20 40 12 33 12 23 C12 14 18 4 32 4 Z" fill="url(#g)" stroke="#f8fafc" stroke-width="2.5"/>
<g fill="#0f172a" opacity=".85">
<circle cx="25" cy="13" r="1.8"/><circle cx="32" cy="12" r="1.8"/><circle cx="39" cy="13" r="1.8"/>
<circle cx="21" cy="20" r="1.8"/><circle cx="28" cy="19.5" r="1.8"/><circle cx="36" cy="19.5" r="1.8"/><circle cx="43" cy="20" r="1.8"/>
<circle cx="21" cy="27" r="1.8"/><circle cx="28" cy="26.5" r="1.8"/><circle cx="36" cy="26.5" r="1.8"/><circle cx="43" cy="27" r="1.8"/>
<circle cx="26" cy="33" r="1.8"/><circle cx="32" cy="33.5" r="1.8"/><circle cx="38" cy="33" r="1.8"/>
</g></g>
<circle cx="53" cy="11" r="6.5" fill="#facc15" stroke="#ca8a04" stroke-width="1.2"/>
<path d="M47.5 8.5 Q53 12.5 58.5 8.5" stroke="#fff" stroke-width="1.3" fill="none"/>
</svg>
